<?xml version="1.0" encoding="UTF-8"?>
<svg version="1.1" xmlns="http://www.w3.org/2000/svg" width="452" height="435">
<path d="M0 0 C149.16 0 298.32 0 452 0 C452 143.55 452 287.1 452 435 C302.84 435 153.68 435 0 435 C0 291.45 0 147.9 0 0 Z " fill="#FEFEFE" transform="translate(0,0)"/>
<path d="M0 0 C149.16 0 298.32 0 452 0 C452 143.55 452 287.1 452 435 C302.84 435 153.68 435 0 435 C0 291.45 0 147.9 0 0 Z M133 34 C132.30036133 34.32226562 131.60072266 34.64453125 130.87988281 34.9765625 C110.82261391 44.33471926 93.02612681 56.74896325 77 72 C76.41492676 72.55252441 75.82985352 73.10504883 75.22705078 73.67431641 C37.41744886 109.60151923 14.32971557 158.988226 12.77734375 211.32421875 C11.80794046 263.48788503 29.41738856 313.2504911 64.921875 351.734375 C66.81818331 353.8017788 68.63029606 355.91750093 70.4375 358.0625 C83.28679622 372.68511538 100.04639825 384.61676461 117 394 C117.97090576 394.55397461 117.97090576 394.55397461 118.96142578 395.11914062 C167.74664483 422.92872896 227.3814663 429.04596888 281.38378906 414.71679688 C311.67514625 406.41748513 340.47100843 392.00139058 364 371 C364.48227051 370.57122559 364.96454102 370.14245117 365.46142578 369.70068359 C369.02562479 366.52009575 372.52324397 363.27589804 376 360 C377.17369141 358.90751953 377.17369141 358.90751953 378.37109375 357.79296875 C410.88820137 326.55104182 433.33472909 278.0438816 435.16113281 233.02856445 C435.18063644 231.64020315 435.19441285 230.25175221 435.203125 228.86328125 C435.21371445 227.73355644 435.21371445 227.73355644 435.22451782 226.58100891 C435.40439649 202.64199288 435.40439649 202.64199288 432 179 C431.80132324 178.08686035 431.60264648 177.1737207 431.39794922 176.23291016 C419.71082066 124.22299948 387.32223186 77.32390005 342.24609375 48.5625 C338.55348529 46.27394378 334.788394 44.12503276 331 42 C330.3498291 41.6277832 329.6996582 41.25556641 329.02978516 40.87207031 C300.12095502 24.39888219 266.28246265 14.91239171 233 14 C231.11474609 13.94005859 231.11474609 13.94005859 229.19140625 13.87890625 C195.94895071 13.17612281 163.15068535 20.06179169 133 34 Z " fill="#FEFEFE" transform="translate(0,0)"/>
<path d="M0 0 C1.56137963 1.33138917 3.1041596 2.68498487 4.625 4.0625 C5.33269531 4.70058594 6.04039062 5.33867187 6.76953125 5.99609375 C22.18344037 20.64372823 30.80806852 40.75402338 31.375 61.875 C31.35060264 67.87038595 31.19744759 72.69652748 27.4375 77.625 C25.88636731 79.15968958 24.2754123 80.63511639 22.625 82.0625 C21.60713821 83.03663343 20.59439744 84.01613664 19.5859375 85 C12.92791263 91.41228927 5.85192184 97.30399654 -1.375 103.0625 C-2.57472814 104.03061909 -3.77391595 104.99940802 -4.97265625 105.96875 C-27.39741815 124.0625 -27.39741815 124.0625 -29.375 124.0625 C-29.28798828 122.69544922 -29.28798828 122.69544922 -29.19921875 121.30078125 C-28.2805395 94.92156265 -38.7185889 64.84652246 -56.375 45.0625 C-58.44750268 43.18701571 -58.44750268 43.18701571 -60.625 41.75 C-61.31078125 41.25886719 -61.9965625 40.76773438 -62.703125 40.26171875 C-66.6751937 38.47893353 -70.00108013 37.61753232 -74.375 38.0625 C-78.56633915 39.71991596 -82.29325489 42.01792059 -86.125 44.375 C-88.34734783 45.67815685 -90.57265865 46.97627283 -92.80078125 48.26953125 C-94.45907959 49.23753662 -94.45907959 49.23753662 -96.15087891 50.22509766 C-118.73952769 63.09819858 -149.43835815 76.98749973 -175.9375 69.875 C-183.36825814 67.17866016 -189.74011413 63.33227174 -193.375 56.0625 C-193.414992 54.06289988 -193.41846799 52.06202758 -193.375 50.0625 C-192.75270508 49.89234375 -192.13041016 49.7221875 -191.48925781 49.546875 C-160.98012476 41.12747388 -133.89422415 29.37641011 -108.78393555 9.90673828 C-102.56810702 5.12469328 -96.22176533 0.90939392 -89.375 -2.9375 C-87.93640625 -3.74960938 -87.93640625 -3.74960938 -86.46875 -4.578125 C-58.85348019 -19.27657506 -25.31971319 -19.645936 0 0 Z " fill="#1F1A17" transform="translate(238.375,238.9375)"/>
<path d="M0 0 C0.8660083 0.71373779 0.8660083 0.71373779 1.74951172 1.44189453 C13.30860096 11.02299117 23.73282564 21.14129723 33 33 C34.07701172 34.35158203 34.07701172 34.35158203 35.17578125 35.73046875 C67.81970462 77.76749263 81.2171092 130.5721321 75.31640625 183.25 C69.24383908 227.17167183 48.39721482 266.1509779 18 298 C17.23945313 298.80179687 16.47890625 299.60359375 15.6953125 300.4296875 C-22.50494743 339.71749931 -77.92618279 360.10493941 -132.04321289 361.35375977 C-187.71626329 361.75369003 -240.15618741 341.66117784 -281 304 C-281.8559375 303.2471875 -282.711875 302.494375 -283.59375 301.71875 C-288.83557849 297.10846711 -293.59725316 292.41528821 -298 287 C-298.60497314 286.26354248 -298.60497314 286.26354248 -299.22216797 285.51220703 C-306.1409629 277.05646387 -312.32893033 268.33484444 -318 259 C-319.01707031 257.35451172 -319.01707031 257.35451172 -320.0546875 255.67578125 C-325.71729498 246.19036288 -330.01501015 236.28636673 -334 226 C-334.24878906 225.35981934 -334.49757813 224.71963867 -334.75390625 224.06005859 C-349.69252308 184.7608259 -349.87915287 140.04479648 -338 100 C-337.79568359 99.30455078 -337.59136719 98.60910156 -337.38085938 97.89257812 C-329.88276902 73.11317476 -316.9021268 49.58555724 -300 30 C-299.36449219 29.25492187 -298.72898437 28.50984375 -298.07421875 27.7421875 C-261.57230238 -13.91536677 -212.36785224 -40.31534091 -157 -46 C-155.741875 -46.13019531 -154.48375 -46.26039062 -153.1875 -46.39453125 C-98.79028861 -51.03065722 -42.22674457 -34.95557407 0 0 Z M-175 -34 C-175.91749023 -33.81195801 -176.83498047 -33.62391602 -177.78027344 -33.43017578 C-222.48124115 -24.06844362 -265.90134009 0.48289239 -294 37 C-294.6496875 37.77214844 -295.299375 38.54429688 -295.96875 39.33984375 C-302.14546168 46.70532732 -307.12563624 54.73944558 -312 63 C-312.36125977 63.60972656 -312.72251953 64.21945313 -313.09472656 64.84765625 C-337.82365513 107.18693188 -342.65376771 159.18271634 -330.74609375 206.22607422 C-317.94839962 253.80702995 -285.73561377 296.53333136 -243.375 321.83203125 C-238.98550439 324.35760501 -234.51239701 326.70300224 -230 329 C-229.32324219 329.35255859 -228.64648438 329.70511719 -227.94921875 330.06835938 C-180.62473114 354.55763306 -123.44540878 358.27242776 -72.796875 342.5625 C-59.94418739 338.42506112 -47.91114351 333.36881551 -36 327 C-35.39414062 326.67773438 -34.78828125 326.35546875 -34.1640625 326.0234375 C11.145685 301.6867609 44.31829929 260.16573901 59.50390625 211.26171875 C62.45010766 201.33106155 64.54789431 191.25392625 66 181 C66.09571289 180.33524658 66.19142578 179.67049316 66.29003906 178.9855957 C71.27177525 140.10930499 62.55413994 100.22984006 44 66 C43.43539063 64.95457031 42.87078125 63.90914063 42.2890625 62.83203125 C28.15208692 37.71069201 8.29185953 16.76245721 -15 0 C-15.61568848 -0.44972168 -16.23137695 -0.89944336 -16.86572266 -1.36279297 C-39.99937643 -18.13358068 -67.11959262 -28.45615021 -95 -34 C-95.7744043 -34.16371094 -96.54880859 -34.32742187 -97.34667969 -34.49609375 C-121.88455338 -39.53484253 -150.53835919 -39.28313544 -175 -34 Z " fill="#201B19" transform="translate(359,61)"/>
<path d="M0 0 C-2.85982901 1.90655268 -5.33727213 2.77601125 -8.59863281 3.75048828 C-21.60791406 7.6767128 -34.26336112 13.62233848 -45.484375 21.3359375 C-48 23 -48 23 -50 23 C-50 23.66 -50 24.32 -50 25 C-50.969375 25.52335937 -51.93875 26.04671875 -52.9375 26.5859375 C-57.56734894 29.23322562 -61.74748696 32.41847149 -66 35.625 C-82.26072578 47.72556713 -99.07483238 58.88444101 -117.375 67.6875 C-118.09478027 68.03893066 -118.81456055 68.39036133 -119.55615234 68.75244141 C-124.63529591 71.12156803 -124.63529591 71.12156803 -128 70 C-128.66 70 -129.32 70 -130 70 C-130.60619171 69.96447021 -131.21238342 69.92894043 -131.83694458 69.89233398 C-137.93497814 69.66090508 -142.64661135 70.88907142 -148.3046875 73.0625 C-149.1504837 73.37324463 -149.99627991 73.68398926 -150.8677063 74.00415039 C-153.54207712 74.98918295 -156.20864912 75.99348391 -158.875 77 C-161.563908 78.00305116 -164.2542639 79.00193859 -166.94656372 79.99584961 C-168.61490055 80.61298323 -170.28107974 81.23598862 -171.9447937 81.86547852 C-177.66801394 84 -177.66801394 84 -181 84 C-179.69273231 80.55460979 -178.1883393 77.39447498 -176.35546875 74.19921875 C-175.84306641 73.30396484 -175.33066406 72.40871094 -174.80273438 71.48632812 C-174.26970703 70.56271484 -173.73667969 69.63910156 -173.1875 68.6875 C-172.66607422 67.77548828 -172.14464844 66.86347656 -171.60742188 65.92382812 C-170.08554828 63.27337411 -168.56089394 60.62771037 -167 58 C-166.68609314 57.35245758 -166.37218628 56.70491516 -166.04876709 56.03775024 C-162.6808641 49.65926359 -158.70953102 48.01535235 -151.9921875 45.9375 C-151.02975128 45.61587891 -150.06731506 45.29425781 -149.07571411 44.96289062 C-146.01688149 43.9484187 -142.94677876 42.97447208 -139.875 42 C-137.8025562 41.31631054 -135.73093004 40.6301373 -133.66015625 39.94140625 C-129.8781372 38.69637923 -126.09530774 37.45489851 -122.30029297 36.25 C-121.54038055 36.00765625 -120.78046814 35.7653125 -119.99752808 35.515625 C-118 35 -118 35 -115 35 C-114.67 34.01 -114.34 33.02 -114 32 C-111.93359375 31.05078125 -111.93359375 31.05078125 -109.4375 30.3125 C-108.61121094 30.06113281 -107.78492188 29.80976563 -106.93359375 29.55078125 C-106.29550781 29.36902344 -105.65742188 29.18726563 -105 29 C-105.33 28.01 -105.66 27.02 -106 26 C-108.01508358 25.26676204 -108.01508358 25.26676204 -110 25 C-110.33 26.65 -110.66 28.3 -111 30 C-111.65145996 30.1451001 -112.30291992 30.2902002 -112.97412109 30.43969727 C-125.80083591 33.31133314 -138.59343231 36.3062343 -151.3125 39.625 C-152.40804199 39.90158447 -153.50358398 40.17816895 -154.63232422 40.46313477 C-161.46137362 42.2790972 -165.69923081 44.10760444 -170.1875 49.75 C-170.785625 50.4925 -171.38375 51.235 -172 52 C-172.66 52 -173.32 52 -174 52 C-174.07992187 52.5671875 -174.15984375 53.134375 -174.2421875 53.71875 C-176.1582519 59.48669644 -182.64465318 64.44129001 -187.75 67.5 C-192.10359934 69.50935354 -196.13479037 70.0879102 -200.88671875 70.39453125 C-213.27607651 71.27979196 -224.95724622 72.99581412 -237 76 C-238.66419936 76.34544086 -240.32980752 76.68480803 -242 77 C-242.33 78.65 -242.66 80.3 -243 82 C-243.99 82 -244.98 82 -246 82 C-245.42655063 79.13275314 -245.1385485 78.1385485 -243 76 C-242.39338781 74.36990943 -241.83819354 72.72045655 -241.3125 71.0625 C-232.44942715 46.22001842 -208.59812002 30.27939237 -186 19 C-184.92395508 18.46101074 -184.92395508 18.46101074 -183.82617188 17.91113281 C-159.93483531 6.16040744 -134.23017006 0.13907329 -107.67578125 -0.24023438 C-90.8990725 -0.48340044 -74.57786034 -1.70269349 -57.96875 -4.0625 C-14.85850096 -10.13079611 -14.85850096 -10.13079611 0 0 Z " fill="#AAAAAA" transform="translate(308,145)"/>
<path d="M0 0 C0.49242187 0.43070801 0.98484375 0.86141602 1.4921875 1.30517578 C17.72905866 15.60001 31.43736725 32.52447358 41.44140625 51.7734375 C43.30410892 54.43444132 44.32657011 54.7865321 47.4375 55.5 C50.63637892 56.43778209 51.9861582 56.98784623 54.5625 59.25 C56.42063851 62.80469976 56.49569182 65.03446546 56 69 C55.443125 69.763125 54.88625 70.52625 54.3125 71.3125 C52.71134573 74.59105399 53.13084542 75.23282284 54.234375 78.59765625 C54.52094971 79.490896 54.80752441 80.38413574 55.1027832 81.30444336 C55.39886475 82.19397705 55.69494629 83.08351074 56 84 C62.15186492 102.8717209 66.40124828 122.08499728 67 142 C67.03996094 142.91394531 67.07992187 143.82789063 67.12109375 144.76953125 C67.93428215 178.97127881 58.40065527 215.26264989 34.51074219 240.578125 C24.88874788 250.55562606 24.88874788 250.55562606 22 252 C21.566875 253.093125 21.13375 254.18625 20.6875 255.3125 C18.93879077 259.65750712 16.1717747 261.91411265 12 264 C10.58209451 263.94140886 9.16536498 263.85310606 7.75 263.75 C1.8756391 263.66523289 -2.82644019 265.51447264 -8.21484375 267.7109375 C-17.35432725 270.8234551 -26.28321893 271.29649751 -35.875 271.1875 C-36.97585938 271.18685547 -38.07671875 271.18621094 -39.2109375 271.18554688 C-43.96124761 271.15960465 -48.35211389 271.05729653 -53 270 C-51.0183852 266.43309336 -49.27637874 263.46503574 -46 261 C-42.88227536 260.42352963 -39.78881555 260.44722303 -36.625 260.4375 C-28.06987649 260.21978675 -20.28175728 259.29560646 -12 257 C-10.90429688 256.72671875 -9.80859375 256.4534375 -8.6796875 256.171875 C-5.85640453 255.30779686 -5.85640453 255.30779686 -5.1875 253.01171875 C-5.125625 252.24472656 -5.06375 251.47773438 -5 250.6875 C-4.44205297 247.07828013 -3.8514558 245.33737122 -1 243 C2.51672714 240.65551524 4.16826468 239.84732551 8.3125 239.8125 C9.07175781 239.79832031 9.83101562 239.78414063 10.61328125 239.76953125 C13.36013806 240.03477602 15.49211899 240.87700196 18 242 C39.5708319 221.30497632 51.48217112 197.54465072 56 168 C56.18433594 166.97519531 56.36867188 165.95039063 56.55859375 164.89453125 C59.6675252 137.46440152 56.08978046 107.66447741 45.69921875 81.99609375 C45 80 45 80 45 77 C44.13375 77.0825 43.2675 77.165 42.375 77.25 C38.15582043 76.93746818 36.24765643 75.65717344 33 73 C30.78453244 70.30290906 30.93018858 68.21793442 31.25 64.875 C32 61 32 61 34 59 C32.27241047 43.41781992 13.40080892 25.81817686 3 15 C2.43410156 14.3709375 1.86820313 13.741875 1.28515625 13.09375 C-13.43887714 -2.79172114 -34.61724394 -13.63678451 -55 -20 C-56.68222656 -20.54140625 -56.68222656 -20.54140625 -58.3984375 -21.09375 C-81.2362774 -27.18384064 -106.45326949 -23.47953454 -126.98193359 -12.19775391 C-151.68979083 2.46674496 -164.79508309 27.31907637 -172.3359375 54.171875 C-173.11429481 57.00258774 -173.11429481 57.00258774 -173 60 C-171.9275 60.391875 -170.855 60.78375 -169.75 61.1875 C-166.04199161 62.82294273 -163.92818527 64.30431156 -162 68 C-161.57838646 72.73239691 -162.36595461 76.04893192 -165 80 C-168.94874986 82.63249991 -172.33433828 82.88818676 -177 83 C-177 84.65 -177 86.3 -177 88 C-180.37097383 89.49821059 -182.20442119 90 -186 90 C-185.98839844 89.15695313 -185.97679687 88.31390625 -185.96484375 87.4453125 C-185.95582031 86.34960938 -185.94679688 85.25390625 -185.9375 84.125 C-185.92589844 83.03445312 -185.91429687 81.94390625 -185.90234375 80.8203125 C-185.80255697 78.04822454 -185.80255697 78.04822454 -187 76 C-187.37429736 71.22770864 -186.70362191 68.25031395 -184.76660156 63.93432617 C-183.4617802 60.64193775 -182.91354051 57.21733577 -182.25 53.75 C-178.14102707 34.15461102 -170.22226432 15.22998342 -157 0 C-156.31292969 -0.81855469 -155.62585938 -1.63710937 -154.91796875 -2.48046875 C-138.4794954 -21.5099449 -116.7044613 -32.1984831 -91.875 -34.6875 C-57.59209948 -36.85527123 -25.45202959 -22.27052589 0 0 Z " fill="#201B19" transform="translate(297,70)"/>
<path d="M0 0 C4.75072103 5.0221908 6.45115615 9.63098294 6.75 16.5625 C6.30092626 28.71555819 0.45679206 37.73693787 -7.8125 46.3125 C-17.54713815 55.25170079 -29.43645758 59.85562142 -42.5859375 59.62890625 C-48.74622827 59.02480994 -53.03744752 56.78541588 -57.75 52.875 C-62.93365694 46.43469895 -62.60041033 39.24189542 -61.8125 31.3125 C-58.79473775 19.32934699 -50.75767115 9.48787746 -40.50390625 2.8125 C-27.25309857 -4.57256553 -13.72691028 -8.23614617 0 0 Z " fill="#A9A9A9" transform="translate(247.8125,78.6875)"/>
<path d="M0 0 C-1.45865859 4.05208833 -3.42460462 7.43131795 -5.7734375 11.03515625 C-6.32096176 11.87595985 -6.32096176 11.87595985 -6.87954712 12.73374939 C-7.6489451 13.91256037 -8.42058254 15.0899124 -9.19433594 16.26586914 C-10.37090115 18.05626272 -11.53740999 19.85291902 -12.703125 21.65039062 C-13.45513183 22.79987018 -14.20771695 23.94897165 -14.9609375 25.09765625 C-15.63946777 26.13414307 -16.31799805 27.17062988 -17.01708984 28.23852539 C-20.2119629 32.68782471 -22.88113685 35.28365505 -28.08813477 37.10644531 C-29.09920792 37.46651672 -30.11028107 37.82658813 -31.1519928 38.1975708 C-32.23749924 38.57065369 -33.32300568 38.94373657 -34.44140625 39.328125 C-36.12024147 39.91892853 -36.12024147 39.91892853 -37.83299255 40.52166748 C-40.19560423 41.35059622 -42.56016864 42.17397727 -44.92651367 42.9921875 C-48.55642422 44.24789818 -52.17991618 45.52086441 -55.80273438 46.796875 C-58.09860262 47.59997597 -60.39481525 48.40209322 -62.69140625 49.203125 C-63.77893692 49.58430481 -64.86646759 49.96548462 -65.98695374 50.35821533 C-66.99487473 50.7056781 -68.00279572 51.05314087 -69.04125977 51.41113281 C-69.92854263 51.71883606 -70.8158255 52.02653931 -71.72999573 52.34356689 C-74 53 -74 53 -77 53 C-75.69273231 49.55460979 -74.1883393 46.39447498 -72.35546875 43.19921875 C-71.84306641 42.30396484 -71.33066406 41.40871094 -70.80273438 40.48632812 C-70.26970703 39.56271484 -69.73667969 38.63910156 -69.1875 37.6875 C-68.66607422 36.77548828 -68.14464844 35.86347656 -67.60742188 34.92382812 C-66.08554828 32.27337411 -64.56089394 29.62771037 -63 27 C-62.53750099 26.03065773 -62.53750099 26.03065773 -62.06565857 25.04173279 C-59.20262789 19.56274386 -56.27244877 17.6967893 -50.4728241 15.73112488 C-49.49565933 15.43184586 -48.51849457 15.13256683 -47.51171875 14.82421875 C-46.49455276 14.48751663 -45.47738678 14.15081451 -44.42939758 13.8039093 C-41.19017868 12.7381042 -37.93993214 11.71218606 -34.6875 10.6875 C-32.51280662 9.9811741 -30.33896665 9.27221492 -28.16601562 8.56054688 C-24.16354423 7.25117688 -20.15599579 5.96004778 -16.14331055 4.68237305 C-12.88817404 3.64058991 -9.69187634 2.52019525 -6.50708008 1.28051758 C-3 0 -3 0 0 0 Z " fill="#D7251D" transform="translate(204,176)"/>
<path d="M0 0 C4.20527562 3.20928929 4.71366684 6.03641799 5.484375 11.1328125 C3.21457835 11.24075527 0.94332304 11.31837426 -1.328125 11.3828125 C-3.22498047 11.45242187 -3.22498047 11.45242187 -5.16015625 11.5234375 C-8.515625 11.1328125 -8.515625 11.1328125 -10.234375 9.1328125 C-10.86859375 8.1428125 -10.86859375 8.1428125 -11.515625 7.1328125 C-15.14126314 6.79900436 -15.14126314 6.79900436 -18.515625 7.1328125 C-18.845625 8.1228125 -19.175625 9.1128125 -19.515625 10.1328125 C-18.44183594 10.37515625 -17.36804688 10.6175 -16.26171875 10.8671875 C-14.8253841 11.20514859 -13.38919371 11.54372315 -11.953125 11.8828125 C-11.24865234 12.04007813 -10.54417969 12.19734375 -9.81835938 12.359375 C-3.94669458 13.76640988 1.4328877 15.68426314 5.421875 20.4453125 C7.01275978 24.46931517 7.28619593 27.85621379 5.828125 31.99609375 C3.38698936 36.90993143 0.40617232 38.84769232 -4.515625 41.1328125 C-11.63056024 43.33330794 -19.66055436 42.82185393 -26.5703125 40.171875 C-30.00385008 38.3378971 -31.45909948 36.47466646 -33.515625 33.1328125 C-34.328125 29.2578125 -34.328125 29.2578125 -34.515625 26.1328125 C-29.895625 25.8028125 -25.275625 25.4728125 -20.515625 25.1328125 C-20.185625 27.1128125 -19.855625 29.0928125 -19.515625 31.1328125 C-14.46552905 32.07067332 -14.46552905 32.07067332 -9.515625 31.1328125 C-9.185625 30.1428125 -8.855625 29.1528125 -8.515625 28.1328125 C-8.845625 27.4728125 -9.175625 26.8128125 -9.515625 26.1328125 C-12.05218754 25.31685532 -14.57293684 24.58474788 -17.140625 23.8828125 C-23.50921188 22.00887146 -28.13520483 20.3679488 -32.515625 15.1328125 C-34.0012286 11.25373643 -33.62292378 9.4988907 -32.453125 5.5078125 C-30.04598617 1.31473196 -27.37574054 -0.92644309 -22.74609375 -2.44921875 C-15.14944309 -3.87275924 -6.74202025 -4.12012349 0 0 Z " fill="#0392DA" transform="translate(405.515625,216.8671875)"/>
<path d="M0 0 C1.10601562 -0.01740234 1.10601562 -0.01740234 2.234375 -0.03515625 C7.22946608 -0.00830092 10.78127984 0.78127984 14.375 4.375 C14.51693337 7.37831018 14.41736378 10.36717134 14.375 13.375 C9.755 13.705 5.135 14.035 0.375 14.375 C-0.12 12.395 -0.12 12.395 -0.625 10.375 C-3.91196233 9.57546862 -5.33523192 9.27841064 -8.625 10.375 C-8.625 11.365 -8.625 12.355 -8.625 13.375 C-7.74457031 13.61734375 -6.86414063 13.8596875 -5.95703125 14.109375 C-4.79558594 14.44453125 -3.63414062 14.7796875 -2.4375 15.125 C-1.28894531 15.44984375 -0.14039063 15.7746875 1.04296875 16.109375 C4.52341613 17.43137377 6.74251591 18.75226585 9.375 21.375 C10.05809225 26.08074663 9.93198235 28.2610353 7.8125 32.5 C2.0550069 39.2908893 -3.94258258 43.85130068 -13 45.125 C-19.13721624 45.61639551 -24.42906023 45.31611704 -30.125 42.875 C-33.26288764 39.73711236 -33.43594724 37.70345545 -33.71484375 33.3984375 C-33.625 31.375 -33.625 31.375 -32.625 29.375 C-29.54357132 28.27151541 -26.62265038 28.26976776 -23.375 28.3125 C-22.48296875 28.32152344 -21.5909375 28.33054687 -20.671875 28.33984375 C-19.99640625 28.35144531 -19.3209375 28.36304688 -18.625 28.375 C-18.295 30.355 -17.965 32.335 -17.625 34.375 C-12.30329506 34.67062367 -12.30329506 34.67062367 -7.625 32.375 C-6.90117533 30.31574861 -6.90117533 30.31574861 -6.625 28.375 C-7.34945313 28.20484375 -8.07390625 28.0346875 -8.8203125 27.859375 C-14.90785064 26.33343211 -20.081467 24.918533 -24.625 20.375 C-25.03060735 16.23780508 -24.89996599 13.8943802 -22.9375 10.1875 C-16.60709336 2.48835679 -9.67211583 -0.15379689 0 0 Z " fill="#059040" transform="translate(380.625,280.625)"/>
<path d="M0 0 C4.29 0 8.58 0 13 0 C16 8.625 16 8.625 16 12 C16.66 12 17.32 12 18 12 C18.2475 11.319375 18.495 10.63875 18.75 9.9375 C20.21690363 6.49027648 22.1412887 3.25274477 24 0 C29.61 0 35.22 0 41 0 C39.43469176 3.9132706 38.35471762 6.13199262 35.875 9.3125 C35.33617187 10.00988281 34.79734375 10.70726562 34.2421875 11.42578125 C33.83226562 11.94527344 33.42234375 12.46476563 33 13 C34.4841373 16.48654476 36.46214052 18.64191072 39.1875 21.25 C44.56078394 26.5021471 49.5388601 31.94941205 54 38 C40.94138016 40.08805343 40.94138016 40.08805343 36.06445312 36.62597656 C32.15654072 32.83899304 29.03183858 28.50182093 26 24 C24.33924286 25.68431367 24.33924286 25.68431367 23 28 C23.06584555 30.61891038 23.06584555 30.61891038 23.8125 33.25 C24.204375 34.8175 24.59625 36.385 25 38 C20.71 38 16.42 38 12 38 C8.87791886 30.45497058 6.22281001 22.84269299 3.75 15.0625 C3.20472656 13.37930664 3.20472656 13.37930664 2.6484375 11.66210938 C2.30554688 10.58896484 1.96265625 9.51582031 1.609375 8.41015625 C1.29967773 7.44215088 0.98998047 6.47414551 0.67089844 5.47680664 C0 3 0 3 0 0 Z " fill="#D4271F" transform="translate(362,146)"/>
<path d="M0 0 C-2.05828019 19.29327699 -15.62231578 35.90024974 -28.58984375 49.46484375 C-30.65571243 51.63785635 -32.55763607 53.85533799 -34.4375 56.1875 C-37.0038026 59.00417358 -37.47764066 59.48814664 -41 60 C-43.00946222 59.72949547 -45.01354224 59.40632091 -47 59 C-44.41505876 57.27670584 -42.9735858 56.64249828 -40.11328125 55.8203125 C-35.27978896 54.04762727 -33.58686562 51.26663008 -31.1875 46.875 C-30.35219241 45.44418286 -29.51487599 44.01453699 -28.67578125 42.5859375 C-28.24604004 41.84053711 -27.81629883 41.09513672 -27.37353516 40.32714844 C-24.99925961 36.304469 -22.43133143 32.40851258 -19.875 28.5 C-18.93463497 27.05225274 -17.99450703 25.60435143 -17.0546875 24.15625 C-16.37664062 23.1146875 -15.69859375 22.073125 -15 21 C-20.445 22.485 -20.445 22.485 -26 24 C-25 22 -25 22 -22.93359375 21.1484375 C-22.10988281 20.89320313 -21.28617188 20.63796875 -20.4375 20.375 C-19.61121094 20.11460937 -18.78492188 19.85421875 -17.93359375 19.5859375 C-17.29550781 19.39257812 -16.65742188 19.19921875 -16 19 C-16.33 18.01 -16.66 17.02 -17 16 C-19.97 15.505 -19.97 15.505 -23 15 C-23 12.69 -23 10.38 -23 8 C-19.54372619 6.66128359 -16.08465703 5.32994608 -12.625 4 C-11.64015625 3.6184375 -10.6553125 3.236875 -9.640625 2.84375 C-8.69960937 2.4828125 -7.75859375 2.121875 -6.7890625 1.75 C-5.91975098 1.41484375 -5.05043945 1.0796875 -4.15478516 0.734375 C-2 0 -2 0 0 0 Z " fill="#FBF7F5" transform="translate(219,155)"/>
<path d="M0 0 C0.33 1.98 0.66 3.96 1 6 C1.66 6 2.32 6 3 6 C3 6.66 3 7.32 3 8 C3.99 8.33 4.98 8.66 6 9 C5.01 9 4.02 9 3 9 C3 9.99 3 10.98 3 12 C1.68 12.33 0.36 12.66 -1 13 C-1.33 11.35 -1.66 9.7 -2 8 C-2.66 8 -3.32 8 -4 8 C-4.33 9.32 -4.66 10.64 -5 12 C-4.01 12.33 -3.02 12.66 -2 13 C-2.33 13.66 -2.66 14.32 -3 15 C1.455 14.505 1.455 14.505 6 14 C6.33 12.68 6.66 11.36 7 10 C7.99 10.33 8.98 10.66 10 11 C9.67 11.99 9.34 12.98 9 14 C11.91634129 14.2502157 11.91634129 14.2502157 15 14 C15.66 13.01 16.32 12.02 17 11 C20.625 9.8125 20.625 9.8125 24 9 C22.91790362 12.13807951 22.05268214 12.96907788 19.125 14.6875 C11.05200118 18.0781595 2.1561594 18.18802529 -6.0546875 15.0390625 C-9.48822508 13.2050846 -10.94347448 11.34185396 -13 8 C-13.8125 4.125 -13.8125 4.125 -14 1 C-12.41693353 0.83081732 -10.83353281 0.66476064 -9.25 0.5 C-8.36828125 0.4071875 -7.4865625 0.314375 -6.578125 0.21875 C-4 0 -4 0 0 0 Z " fill="#0890D4" transform="translate(385,242)"/>
<path d="M0 0 C-0.72256662 4.25421245 -2.00408378 8.18369169 -3.4375 12.25 C-3.86933594 13.49265625 -4.30117187 14.7353125 -4.74609375 16.015625 C-6 19 -6 19 -8 20 C-8.47050781 19.45730469 -8.94101563 18.91460937 -9.42578125 18.35546875 C-10.04839844 17.64003906 -10.67101562 16.92460937 -11.3125 16.1875 C-11.92738281 15.47980469 -12.54226562 14.77210938 -13.17578125 14.04296875 C-14.73404289 12.29784918 -16.33849818 10.64511216 -18 9 C-15.37785672 7.49480613 -12.75255792 5.99568681 -10.125 4.5 C-9.37863281 4.07074219 -8.63226563 3.64148438 -7.86328125 3.19921875 C-7.14785156 2.79316406 -6.43242187 2.38710937 -5.6953125 1.96875 C-5.03547363 1.59169922 -4.37563477 1.21464844 -3.69580078 0.82617188 C-2 0 -2 0 0 0 Z " fill="#CD2C22" transform="translate(216,158)"/>
<path d="M0 0 C4.20527562 3.20928929 4.71366684 6.03641799 5.484375 11.1328125 C3.21515964 11.26770641 0.9436683 11.36475245 -1.328125 11.4453125 C-3.22498047 11.53232422 -3.22498047 11.53232422 -5.16015625 11.62109375 C-8.515625 11.1328125 -8.515625 11.1328125 -10.46484375 8.61328125 C-10.81160156 7.79472656 -11.15835937 6.97617188 -11.515625 6.1328125 C-6.765625 7.0078125 -6.765625 7.0078125 -4.515625 8.1328125 C-4.20625 7.3490625 -3.896875 6.5653125 -3.578125 5.7578125 C-2.515625 3.1328125 -2.515625 3.1328125 -1.515625 1.1328125 C-2.464375 1.1534375 -3.413125 1.1740625 -4.390625 1.1953125 C-7.515625 1.1328125 -7.515625 1.1328125 -9.515625 0.1328125 C-9.515625 -0.5271875 -9.515625 -1.1871875 -9.515625 -1.8671875 C-11.1423098 -1.58506873 -12.76695396 -1.29116375 -14.390625 -0.9921875 C-15.29554688 -0.82976562 -16.20046875 -0.66734375 -17.1328125 -0.5 C-19.68068488 -0.03674047 -19.68068488 -0.03674047 -21.515625 2.1328125 C-22.505625 0.8128125 -23.495625 -0.5071875 -24.515625 -1.8671875 C-16.73343934 -4.2365163 -7.04537306 -4.30550576 0 0 Z " fill="#158DCC" transform="translate(405.515625,216.8671875)"/>
<path d="M0 0 C5.28 1.98 10.56 3.96 16 6 C15.67 7.65 15.34 9.3 15 11 C11.34346173 13.43769218 9.30999899 13.23944439 5 13 C4 12 4 12 3.9375 8.9375 C3.9684375 7.4834375 3.9684375 7.4834375 4 6 C1.68690295 6.11341637 -0.62550185 6.24103807 -2.9375 6.375 C-4.22527344 6.44460938 -5.51304687 6.51421875 -6.83984375 6.5859375 C-7.88269531 6.72257812 -8.92554688 6.85921875 -10 7 C-10.33 7.66 -10.66 8.32 -11 9 C-11 8.01 -11 7.02 -11 6 C-6.47324985 3.30550586 -4.11585663 2.8102659 1 4 C1.33 3.67 1.66 3.34 2 3 C1.34 2.67 0.68 2.34 0 2 C0 1.34 0 0.68 0 0 Z " fill="#F3FDF8" transform="translate(358,303)"/>
<path d="M0 0 C2.5846936 0.78742991 5.16770896 1.57976158 7.75 2.375 C8.47960937 2.59671875 9.20921875 2.8184375 9.9609375 3.046875 C17.58842228 5.4044612 17.58842228 5.4044612 20 7 C20.33 7.99 20.66 8.98 21 10 C19 13 19 13 17.25 13.8125 C14.1610162 14.06991532 11.86013448 13.10505196 9 12 C8.67 10.02 8.34 8.04 8 6 C7.44828125 6.16371094 6.8965625 6.32742187 6.328125 6.49609375 C3.73385993 7.05760414 1.40164589 7.09739008 -1.25 7.0625 C-2.14203125 7.05347656 -3.0340625 7.04445312 -3.953125 7.03515625 C-4.62859375 7.02355469 -5.3040625 7.01195312 -6 7 C-6 6.67 -6 6.34 -6 6 C-1.545 5.505 -1.545 5.505 3 5 C2.01 4.01 1.02 3.02 0 2 C0 1.34 0 0.68 0 0 Z " fill="#EAFEFE" transform="translate(377,236)"/>
<path d="M0 0 C0.33 0.66 0.66 1.32 1 2 C0.4225 2.67546875 -0.155 3.3509375 -0.75 4.046875 C-1.4925 4.93890625 -2.235 5.8309375 -3 6.75 C-3.7425 7.63171875 -4.485 8.5134375 -5.25 9.421875 C-7.37441603 12.03226779 -7.37441603 12.03226779 -7 16 C-7 16.66 -7 17.32 -7 18 C-6.34 18.33 -5.68 18.66 -5 19 C-7.09836004 20.03271642 -9.20390891 21.05083717 -11.3125 22.0625 C-12.48425781 22.63097656 -13.65601563 23.19945312 -14.86328125 23.78515625 C-18 25 -18 25 -21 24 C-20.61255615 23.59273682 -20.2251123 23.18547363 -19.82592773 22.76586914 C-9.39623672 11.82492055 -9.39623672 11.82492055 0 0 Z " fill="#B4B3B5" transform="translate(201,191)"/>
<path d="M0 0 C0.33 1.65 0.66 3.3 1 5 C5.62 4.67 10.24 4.34 15 4 C15 4.33 15 4.66 15 5 C13.824375 5.12375 13.824375 5.12375 12.625 5.25 C9.84757889 5.71229528 9.84757889 5.71229528 8.8359375 8.046875 C8.56007813 8.69140625 8.28421875 9.3359375 8 10 C5.34701149 9.27020384 2.70451786 8.51768913 0.0625 7.75 C-0.69224609 7.54503906 -1.44699219 7.34007812 -2.22460938 7.12890625 C-4.40234375 6.484375 -4.40234375 6.484375 -8 5 C-8.72485352 2.90722656 -8.72485352 2.90722656 -9 1 C-5.64919071 -1.10976881 -3.77897651 -1.0497157 0 0 Z " fill="#E5FEF3" transform="translate(380,290)"/>
<path d="M0 0 C0.33 1.65 0.66 3.3 1 5 C1.99 5 2.98 5 4 5 C4 4.01 4 3.02 4 2 C10.435 1.505 10.435 1.505 17 1 C15 6 15 6 12.375 7.3125 C11.59125 7.539375 10.8075 7.76625 10 8 C10 6.68 10 5.36 10 4 C9.01 4.495 9.01 4.495 8 5 C8 5.99 8 6.98 8 8 C4.7 8 1.4 8 -2 8 C-2 7.34 -2 6.68 -2 6 C-2.66 5.67 -3.32 5.34 -4 5 C-3.625 3.0625 -3.625 3.0625 -3 1 C-1 0 -1 0 0 0 Z " fill="#0193E0" transform="translate(384,249)"/>
<path d="M0 0 C0 3 0 3 -1.50390625 4.71875 C-9.13110089 11.31837192 -16.41968735 14.49461828 -26.57421875 13.83203125 C-28.7214665 13.59944083 -30.86189903 13.305443 -33 13 C-33 12.67 -33 12.34 -33 12 C-31.98679687 11.97421875 -30.97359375 11.9484375 -29.9296875 11.921875 C-28.57808403 11.86555819 -27.22652319 11.80821167 -25.875 11.75 C-25.20984375 11.73582031 -24.5446875 11.72164063 -23.859375 11.70703125 C-18.12037694 11.42570782 -14.39598244 9.49182173 -10.4375 5.375 C-8.51043818 3.53172348 -6.48967504 2.91085672 -4 2 C-2.65949948 1.34786461 -1.32338632 0.68620031 0 0 Z " fill="#158949" transform="translate(387,312)"/>
<path d="M0 0 C0.33 0.99 0.66 1.98 1 3 C1.66 3 2.32 3 3 3 C2.67 4.32 2.34 5.64 2 7 C-1.3 7 -4.6 7 -8 7 C-8 7.66 -8 8.32 -8 9 C-9.73030291 8.71515154 -11.45920714 8.42180062 -13.1875 8.125 C-14.15042969 7.96257812 -15.11335938 7.80015625 -16.10546875 7.6328125 C-18.91032604 7.01960483 -21.37224747 6.14333657 -24 5 C-23.67 3.68 -23.34 2.36 -23 1 C-19.6875 0.75 -19.6875 0.75 -16 1 C-15.5771875 1.6496875 -15.154375 2.299375 -14.71875 2.96875 C-13.06918806 5.35466123 -13.06918806 5.35466123 -9.64453125 5.609375 C-8.37996094 5.65578125 -7.11539062 5.7021875 -5.8125 5.75 C-3.90404297 5.83507812 -3.90404297 5.83507812 -1.95703125 5.921875 C-0.98121094 5.94765625 -0.00539063 5.9734375 1 6 C0.67 4.02 0.34 2.04 0 0 Z " fill="#E1FEFE" transform="translate(410,222)"/>
<path d="M0 0 C1.65 1.65 3.3 3.3 5 5 C4.34 5 3.68 5 3 5 C2.87625 5.556875 2.7525 6.11375 2.625 6.6875 C1.93456646 9.2421041 1.10518316 11.59460135 0 14 C-0.99 14.495 -0.99 14.495 -2 15 C-2.165 15.66 -2.33 16.32 -2.5 17 C-2.665 17.66 -2.83 18.32 -3 19 C-3.66 19.33 -4.32 19.66 -5 20 C-5.433125 20.928125 -5.86625 21.85625 -6.3125 22.8125 C-8.11769009 26.2223035 -9.87642977 27.80505876 -13 30 C-11.67222482 26.4004407 -10.06824929 23.33900627 -7.9609375 20.13671875 C-7.38085938 19.25048828 -6.80078125 18.36425781 -6.203125 17.45117188 C-5.59984375 16.53916016 -4.9965625 15.62714844 -4.375 14.6875 C-3.76398438 13.75615234 -3.15296875 12.82480469 -2.5234375 11.86523438 C-1.01958937 9.57421575 0.48967761 7.28675574 2 5 C-3.445 6.485 -3.445 6.485 -9 8 C-8 6 -8 6 -5.93359375 5.1484375 C-5.10988281 4.89320313 -4.28617188 4.63796875 -3.4375 4.375 C-2.61121094 4.11460937 -1.78492188 3.85421875 -0.93359375 3.5859375 C-0.29550781 3.39257812 0.34257812 3.19921875 1 3 C0.67 2.01 0.34 1.02 0 0 Z " fill="#FEEEE8" transform="translate(202,171)"/>
<path d="M0 0 C4.29 0 8.58 0 13 0 C16 8.625 16 8.625 16 12 C16.66 12 17.32 12 18 12 C18.66 10.35 19.32 8.7 20 7 C20.33 7.99 20.66 8.98 21 10 C20.01 11.485 20.01 11.485 19 13 C17.68 13 16.36 13 15 13 C14.49440092 11.56445975 13.9957251 10.1264798 13.5 8.6875 C13.2215625 7.88699219 12.943125 7.08648437 12.65625 6.26171875 C12 4 12 4 12 1 C8.7 1 5.4 1 2 1 C2.2165625 1.68707031 2.433125 2.37414062 2.65625 3.08203125 C2.9346875 3.98308594 3.213125 4.88414062 3.5 5.8125 C3.7784375 6.70582031 4.056875 7.59914062 4.34375 8.51953125 C5 11 5 11 5 14 C5.66 14 6.32 14 7 14 C7 16.64 7 19.28 7 22 C4.67397132 18.51095699 3.58882418 14.96609994 2.375 11 C2.14554687 10.27554688 1.91609375 9.55109375 1.6796875 8.8046875 C0.73931944 5.77088102 0 3.19456412 0 0 Z " fill="#BC3632" transform="translate(362,146)"/>
<path d="M0 0 C2.64 0 5.28 0 8 0 C5 2 5 2 2 3 C2 3.99 2 4.98 2 6 C2.91523438 6.26554687 3.83046875 6.53109375 4.7734375 6.8046875 C6.55621094 7.33449219 6.55621094 7.33449219 8.375 7.875 C10.15003906 8.39707031 10.15003906 8.39707031 11.9609375 8.9296875 C15 10 15 10 17 12 C13.27034861 14.03435531 11.33094958 15 7 15 C7 13.35 7 11.7 7 10 C5.2984375 9.4121875 5.2984375 9.4121875 3.5625 8.8125 C0 7 0 7 -1 4.4375 C-1 2 -1 2 0 0 Z " fill="#0B8F45" transform="translate(370,288)"/>
<path d="M0 0 C0.89203125 0.00902344 1.7840625 0.01804687 2.703125 0.02734375 C3.37859375 0.03894531 4.0540625 0.05054688 4.75 0.0625 C5.08 2.0425 5.41 4.0225 5.75 6.0625 C11.5474423 6.30678343 11.5474423 6.30678343 16.75 4.0625 C15.75 7.0625 15.75 7.0625 13.75 8.0625 C12.23154798 8.15722912 10.70889616 8.1923841 9.1875 8.1875 C7.97900391 8.19136719 7.97900391 8.19136719 6.74609375 8.1953125 C4.75 8.0625 4.75 8.0625 3.75 7.0625 C3.75 5.0825 3.75 3.1025 3.75 1.0625 C-2.19 1.5575 -2.19 1.5575 -8.25 2.0625 C-7.92 5.0325 -7.59 8.0025 -7.25 11.0625 C-6.26 11.3925 -5.27 11.7225 -4.25 12.0625 C-4.58 13.0525 -4.91 14.0425 -5.25 15.0625 C-7.1875 14.125 -7.1875 14.125 -9.25 12.0625 C-10.15367044 8.38038015 -10.98430205 4.53110409 -9.25 1.0625 C-6.16857132 -0.04098459 -3.24765038 -0.04273224 0 0 Z " fill="#1E864E" transform="translate(357.25,308.9375)"/>
<path d="M0 0 C0.33 0.66 0.66 1.32 1 2 C-0.77039116 5.54078231 -4.45432441 6.68180498 -8 8 C-15.54403211 9.79348688 -22.36246659 10.29449719 -30 9 C-30.33 8.01 -30.66 7.02 -31 6 C-30.26136719 6.09539062 -29.52273438 6.19078125 -28.76171875 6.2890625 C-17.77601342 7.48953348 -9.00809659 6.76252523 0 0 Z " fill="#E4FEF2" transform="translate(383,318)"/>
<path d="M0 0 C-1.56020867 0.65134925 -3.12328579 1.29582964 -4.6875 1.9375 C-5.55761719 2.29714844 -6.42773438 2.65679687 -7.32421875 3.02734375 C-9.88179265 3.9570312 -12.3221323 4.54162625 -15 5 C-16.33333333 8 -16.33333333 8 -15 11 C-15.59167969 10.855625 -16.18335938 10.71125 -16.79296875 10.5625 C-20.92529941 9.59177306 -24.7229762 8.72406298 -29 9 C-24.3794785 5.91965234 -19.18341953 4.55708032 -13.9375 2.8125 C-12.82310547 2.43158203 -11.70871094 2.05066406 -10.56054688 1.65820312 C-8.96629883 1.12549805 -8.96629883 1.12549805 -7.33984375 0.58203125 C-6.36394287 0.25436768 -5.38804199 -0.0732959 -4.38256836 -0.41088867 C-2 -1 -2 -1 0 0 Z " fill="#C3332A" transform="translate(195,180)"/>
<path d="M0 0 C6.93 2.475 6.93 2.475 14 5 C10 6 10 6 6 6 C5.67 7.98 5.34 9.96 5 12 C4.67 12 4.34 12 4 12 C4 10.02 4 8.04 4 6 C1.68690295 6.11341637 -0.62550185 6.24103807 -2.9375 6.375 C-4.22527344 6.44460938 -5.51304687 6.51421875 -6.83984375 6.5859375 C-7.88269531 6.72257812 -8.92554688 6.85921875 -10 7 C-10.33 7.66 -10.66 8.32 -11 9 C-11 8.01 -11 7.02 -11 6 C-6.47324985 3.30550586 -4.11585663 2.8102659 1 4 C1.33 3.67 1.66 3.34 2 3 C1.34 2.67 0.68 2.34 0 2 C0 1.34 0 0.68 0 0 Z " fill="#E6FEF4" transform="translate(358,303)"/>
<path d="M0 0 C0.66 0.33 1.32 0.66 2 1 C1.01 2.485 1.01 2.485 0 4 C-0.66 4 -1.32 4 -2 4 C-2 4.66 -2 5.32 -2 6 C-1.34 6.33 -0.68 6.66 0 7 C-0.66 7 -1.32 7 -2 7 C-2 7.99 -2 8.98 -2 10 C-2.99 10 -3.98 10 -5 10 C-3.34703566 14.09305456 -1.86453858 17.58983503 1 21 C-1.87839991 19.7096828 -4.09054786 18.54593619 -6 16 C-7.23508185 12.11831419 -7.07244014 10.2249457 -5.8125 6.3125 C-4.10535392 3.19254338 -3.01596292 1.76797826 0 0 Z " fill="#1B8DC7" transform="translate(379,216)"/>
<path d="M0 0 C-4.25061356 1.41687119 -6.71851625 0.19320039 -11 -1 C-11 -1.66 -11 -2.32 -11 -3 C-12.6266848 -2.71788123 -14.25132896 -2.42397625 -15.875 -2.125 C-16.77992188 -1.96257812 -17.68484375 -1.80015625 -18.6171875 -1.6328125 C-21.16505988 -1.16955297 -21.16505988 -1.16955297 -23 1 C-23.99 -0.32 -24.98 -1.64 -26 -3 C-17.0957073 -5.7109604 -7.78964592 -4.98537339 0 0 Z " fill="#178DCA" transform="translate(407,218)"/>
<path d="M0 0 C0 2 0 2 -1.64453125 3.69140625 C-2.71767578 4.61759766 -2.71767578 4.61759766 -3.8125 5.5625 C-4.87404297 6.49255859 -4.87404297 6.49255859 -5.95703125 7.44140625 C-8 9 -8 9 -11 10 C-11 11.093125 -11 12.18625 -11 13.3125 C-11 15.54166667 -11 17.77083333 -11 20 C-13 18 -13 18 -13.375 14.75 C-12.81868136 9.18681364 -10.50258473 6.32370559 -6.375 2.6875 C-2.59259259 0 -2.59259259 0 0 0 Z " fill="#15894A" transform="translate(369,283)"/>
<path d="M0 0 C1 3 1 3 0.4375 5.375 C-1.93022138 9.69866513 -5.2722781 12.4240927 -10 14 C-12.00875442 13.72428861 -14.01178687 13.39764263 -16 13 C-13.39028512 11.26019008 -12.01102075 10.67230534 -9.125 9.875 C-4.10716426 8.10672209 -2.2737485 4.60215442 0 0 Z " fill="#FEF2EC" transform="translate(188,201)"/>
<path d="M0 0 C0.89267578 0.01804688 1.78535156 0.03609375 2.70507812 0.0546875 C4.90863504 0.10182241 7.11002601 0.16759343 9.3125 0.25 C9.5625 5.953125 9.5625 5.953125 7.3125 8.625 C6.6525 9.16125 5.9925 9.6975 5.3125 10.25 C4.6525 9.92 3.9925 9.59 3.3125 9.25 C4.9625 6.61 6.6125 3.97 8.3125 1.25 C2.7025 1.25 -2.9075 1.25 -8.6875 1.25 C-9.3475 2.9 -10.0075 4.55 -10.6875 6.25 C-11.64574253 7.61365283 -12.63471175 8.95794169 -13.6875 10.25 C-12.56622769 0.38280366 -9.10657334 -0.34640952 0 0 Z " fill="#FEEEE8" transform="translate(394.6875,144.75)"/>
<path d="M0 0 C-0.72256662 4.25421245 -2.00408378 8.18369169 -3.4375 12.25 C-3.86933594 13.49265625 -4.30117187 14.7353125 -4.74609375 16.015625 C-6 19 -6 19 -8 20 C-8.99 18.35 -9.98 16.7 -11 15 C-10.01 15.33 -9.02 15.66 -8 16 C-7.67 14.68 -7.34 13.36 -7 12 C-6.34 12 -5.68 12 -5 12 C-4.34 9.03 -3.68 6.06 -3 3 C-3.99 2.67 -4.98 2.34 -6 2 C-2.25 0 -2.25 0 0 0 Z " fill="#B83634" transform="translate(216,158)"/>
<path d="M0 0 C0.99 0.66 1.98 1.32 3 2 C1.98679687 2.45439453 1.98679687 2.45439453 0.953125 2.91796875 C-6.14910295 6.13006697 -6.14910295 6.13006697 -11 12 C-11.86258193 14.97390166 -12.49438151 17.94633047 -13 21 C-13.33 21 -13.66 21 -14 21 C-14 17.7 -14 14.4 -14 11 C-13.34 11 -12.68 11 -12 11 C-12 10.01 -12 9.02 -12 8 C-11.34 8 -10.68 8 -10 8 C-9.67 7.01 -9.34 6.02 -9 5 C-6.93359375 3.61328125 -6.93359375 3.61328125 -4.4375 2.3125 C-3.61121094 1.87550781 -2.78492188 1.43851562 -1.93359375 0.98828125 C-1.29550781 0.66214844 -0.65742188 0.33601563 0 0 Z " fill="#E3FEF1" transform="translate(369,280)"/>
<path d="M0 0 C0 0.99 0 1.98 0 3 C-5.9362989 6.53894742 -9.74206498 8.1459278 -16.75 8.0625 C-17.73484375 8.05347656 -18.7196875 8.04445313 -19.734375 8.03515625 C-20.48203125 8.02355469 -21.2296875 8.01195312 -22 8 C-22 7.67 -22 7.34 -22 7 C-21.01257813 6.89042969 -20.02515625 6.78085937 -19.0078125 6.66796875 C-17.08582031 6.43013672 -17.08582031 6.43013672 -15.125 6.1875 C-13.84882813 6.03667969 -12.57265625 5.88585937 -11.2578125 5.73046875 C-7.72229684 5.33151918 -7.72229684 5.33151918 -6 2 C-2.875 0.8125 -2.875 0.8125 0 0 Z " fill="#1F8CC2" transform="translate(408,251)"/>
<path d="M0 0 C0.33 0 0.66 0 1 0 C1 1.98 1 3.96 1 6 C2.65 6 4.3 6 6 6 C2.32740617 8.44839588 -0.54648201 10 -5 10 C-3.66654496 6.40992874 -2.1056769 3.20429093 0 0 Z " fill="#C0332E" transform="translate(132,219)"/>
<path d="M0 0 C1.32 0.33 2.64 0.66 4 1 C3.360625 1.556875 2.72125 2.11375 2.0625 2.6875 C-0.28212191 5.31631851 -0.83385174 6.51088656 -1 10 C-0.07862416 13.54375323 0.96165139 15.94247709 3 19 C1.0625 18.25 1.0625 18.25 -1 17 C-1.625 14.9375 -1.625 14.9375 -2 13 C-2.66 12.67 -3.32 12.34 -4 12 C-3.28571429 3.42857143 -3.28571429 3.42857143 0 0 Z " fill="#E0FEFE" transform="translate(374,217)"/>
<path d="M0 0 C-1.3255581 3.62276315 -2.94346955 6.63505348 -5.125 9.8125 C-5.66382813 10.60269531 -6.20265625 11.39289063 -6.7578125 12.20703125 C-7.16773438 12.79871094 -7.57765625 13.39039063 -8 14 C-8.66 12.68 -9.32 11.36 -10 10 C-9.34 9.01 -8.68 8.02 -8 7 C-7.01 7 -6.02 7 -5 7 C-5 6.01 -5 5.02 -5 4 C-4.34 4 -3.68 4 -3 4 C-3 3.34 -3 2.68 -3 2 C-4.98 2.33 -6.96 2.66 -9 3 C-5.73209435 0.82139623 -3.91954654 0 0 0 Z " fill="#C82F2B" transform="translate(204,176)"/>
<path d="M0 0 C2 1 2 1 2.8984375 2.828125 C4.15382753 5.30329117 5.63147781 6.83031196 7.625 8.75 C8.57246094 9.67039063 8.57246094 9.67039063 9.5390625 10.609375 C10.02117187 11.06828125 10.50328125 11.5271875 11 12 C9.68 12.33 8.36 12.66 7 13 C6.67 12.01 6.34 11.02 6 10 C3.98491642 9.26676204 3.98491642 9.26676204 2 9 C2 8.34 2 7.68 2 7 C1.34 7 0.68 7 0 7 C0 4.69 0 2.38 0 0 Z " fill="#C63029" transform="translate(393,158)"/>
<path d="M0 0 C5.61 0 11.22 0 17 0 C15 5 15 5 13 6 C13.33 4.35 13.66 2.7 14 1 C9.71 1 5.42 1 1 1 C0.67 2.65 0.34 4.3 0 6 C-0.99 6.33 -1.98 6.66 -3 7 C-1.125 2.25 -1.125 2.25 0 0 Z " fill="#BD3634" transform="translate(386,146)"/>
<path d="M0 0 C-0.33 1.32 -0.66 2.64 -1 4 C-1.33 3.67 -1.66 3.34 -2 3 C-3.68183948 2.76712992 -5.3712416 2.58735834 -7.0625 2.4375 C-8.44115234 2.31181641 -8.44115234 2.31181641 -9.84765625 2.18359375 C-10.91306641 2.09271484 -10.91306641 2.09271484 -12 2 C-11.34 4.97 -10.68 7.94 -10 11 C-13.51716303 7.48283697 -13.54676163 5.80432667 -14 1 C-12.41693353 0.83081732 -10.83353281 0.66476064 -9.25 0.5 C-8.36828125 0.4071875 -7.4865625 0.314375 -6.578125 0.21875 C-4 0 -4 0 0 0 Z " fill="#278ABC" transform="translate(385,242)"/>
<path d="M0 0 C0 3.77583766 -0.6417274 5.05215925 -3 8 C-5.56422027 9.3996369 -8.13084342 10.43311019 -11 11 C-11.99 10.67 -12.98 10.34 -14 10 C-7.375 7 -7.375 7 -4 7 C-4 5.35 -4 3.7 -4 2 C-2.68 1.34 -1.36 0.68 0 0 Z " fill="#BC3432" transform="translate(186,202)"/>
<path d="M0 0 C0.99 0.99 1.98 1.98 3 3 C2.484375 3.495 1.96875 3.99 1.4375 4.5 C-0.7171081 8.24714452 0.23154846 10.80844613 1 15 C-1 14 -1 14 -1.73828125 12.109375 C-3.30384071 5.67673613 -3.30384071 5.67673613 -1.625 1.9375 C-1.08875 1.298125 -0.5525 0.65875 0 0 Z " fill="#FFECE9" transform="translate(387,169)"/>
<path d="M0 0 C0.66 0 1.32 0 2 0 C2 1.98 2 3.96 2 6 C2.66 6.33 3.32 6.66 4 7 C0.87819599 7.96661363 -1.52083795 7.98988909 -4.75 7.5625 C-5.94882812 7.40974609 -5.94882812 7.40974609 -7.171875 7.25390625 C-7.77515625 7.17011719 -8.3784375 7.08632812 -9 7 C-5 6 -5 6 -1 5 C-0.67 3.35 -0.34 1.7 0 0 Z " fill="#188CC6" transform="translate(397,243)"/>
<path d="M0 0 C2.64 0 5.28 0 8 0 C5 2 5 2 2 3 C2 3.99 2 4.98 2 6 C4.64 6.66 7.28 7.32 10 8 C10 8.33 10 8.66 10 9 C7.03 8.67 4.06 8.34 1 8 C0.26919734 6.02253397 -0.39421747 4.01927511 -1 2 C-0.67 1.34 -0.34 0.68 0 0 Z " fill="#1B8949" transform="translate(370,288)"/>
<path d="M0 0 C3.375 0.25 3.375 0.25 7 1 C8.4375 3.0625 8.4375 3.0625 9 5 C7 8 7 8 5.125 8.8125 C2.50147776 9.04398726 1.21976911 8.34771696 -1 7 C1.31 7 3.62 7 6 7 C6 5.68 6 4.36 6 3 C4.02 2.34 2.04 1.68 0 1 C0 0.67 0 0.34 0 0 Z " fill="#D9FEFF" transform="translate(389,241)"/>
<path d="M0 0 C1.66611905 -0.042721 3.33382885 -0.04063832 5 0 C5.33 0.33 5.66 0.66 6 1 C7.99541896 1.22528924 9.99159864 1.44761095 11.9921875 1.62109375 C14 2 14 2 17 4 C16.67 4.66 16.34 5.32 16 6 C10.72 4.35 5.44 2.7 0 1 C0 0.67 0 0.34 0 0 Z " fill="#1C8CC2" transform="translate(380,237)"/>
<path d="M0 0 C0.598125 0.20625 1.19625 0.4125 1.8125 0.625 C1.8125 1.945 1.8125 3.265 1.8125 4.625 C-0.4975 4.625 -2.8075 4.625 -5.1875 4.625 C-5.1875 3.635 -5.1875 2.645 -5.1875 1.625 C-2.1875 -0.375 -2.1875 -0.375 0 0 Z " fill="#0193DC" transform="translate(407.1875,222.375)"/>
<path d="M0 0 C-3.5087188 3.09592835 -6.49197399 4.74194623 -11 6 C-9.08100535 0.24301605 -5.72528715 -0.39036049 0 0 Z " fill="#B4B3B3" transform="translate(207,203)"/>
<path d="M0 0 C0.99 0 1.98 0 3 0 C2.67 2.31 2.34 4.62 2 7 C1.01 7 0.02 7 -1 7 C-2 4 -2 4 -1.0625 1.8125 C-0.5365625 0.9153125 -0.5365625 0.9153125 0 0 Z " fill="#D8241F" transform="translate(210,161)"/>
<path d="M0 0 C0 0.66 0 1.32 0 2 C0.9590625 2.1546875 0.9590625 2.1546875 1.9375 2.3125 C2.618125 2.539375 3.29875 2.76625 4 3 C4.33 3.99 4.66 4.98 5 6 C-3.57142857 4.14285714 -3.57142857 4.14285714 -7 1 C-2.25 0 -2.25 0 0 0 Z " fill="#188846" transform="translate(366,302)"/>
<path d="M0 0 C-5.81475715 3.27591952 -10.24520726 5.7342166 -17 5 C-13.97546033 2.98364022 -11.36924652 1.96753498 -7.9375 0.8125 C-6.87402344 0.44769531 -5.81054688 0.08289063 -4.71484375 -0.29296875 C-2 -1 -2 -1 0 0 Z " fill="#BB362F" transform="translate(166,190)"/>
<path d="M0 0 C1.72274487 2.58411731 2.68895522 4.54902656 3.6875 7.4375 C3.95949219 8.19933594 4.23148437 8.96117187 4.51171875 9.74609375 C5.04729142 12.21829721 4.80445309 13.62983284 4 16 C3.72285156 15.37351563 3.44570313 14.74703125 3.16015625 14.1015625 C2.79792969 13.28429687 2.43570312 12.46703125 2.0625 11.625 C1.70285156 10.81289062 1.34320313 10.00078125 0.97265625 9.1640625 C0.3430097 7.76316215 -0.31312642 6.37374716 -1 5 C-0.72057545 3.32345271 -0.39171753 1.65391846 0 0 Z " fill="#FEEFEC" transform="translate(361,146)"/>
<path d="M0 0 C0.33 1.32 0.66 2.64 1 4 C0.34 3.67 -0.32 3.34 -1 3 C-1 2.34 -1 1.68 -1 1 C-2.98 1 -4.96 1 -7 1 C-6.67 2.32 -6.34 3.64 -6 5 C-6.99 4.67 -7.98 4.34 -9 4 C-8.6875 2.0625 -8.6875 2.0625 -8 0 C-4.71023192 -1.09658936 -3.28696233 -0.79953138 0 0 Z " fill="#DBFEED" transform="translate(380,290)"/>
<path d="M0 0 C0.33 0.66 0.66 1.32 1 2 C3.02463255 2.65213292 3.02463255 2.65213292 5 3 C3.23358317 3.6987693 1.46167336 4.38366583 -0.3125 5.0625 C-1.79169922 5.63677734 -1.79169922 5.63677734 -3.30078125 6.22265625 C-6 7 -6 7 -9 6 C-8.43410156 5.73445312 -7.86820313 5.46890625 -7.28515625 5.1953125 C-6.55167969 4.84210938 -5.81820312 4.48890625 -5.0625 4.125 C-4.33160156 3.77695313 -3.60070312 3.42890625 -2.84765625 3.0703125 C-0.83667541 2.1315023 -0.83667541 2.1315023 0 0 Z " fill="#C0352E" transform="translate(164,212)"/>
<path d="M0 0 C2.31 0.33 4.62 0.66 7 1 C6.67 1.66 6.34 2.32 6 3 C5.01 2.67 4.02 2.34 3 2 C3 2.66 3 3.32 3 4 C3.66 4.66 4.32 5.32 5 6 C3.68 6 2.36 6 1 6 C0.67 4.02 0.34 2.04 0 0 Z " fill="#0193DD" transform="translate(373,245)"/>
<path d="M0 0 C-5.39068413 3.59378942 -8.53673535 4.45356243 -15 4 C-12.38668086 2.58445213 -9.69281871 1.41868688 -6.9375 0.3125 C-6.26589844 0.04050781 -5.59429687 -0.23148438 -4.90234375 -0.51171875 C-3 -1 -3 -1 0 0 Z " fill="#F9E9E3" transform="translate(141,226)"/>
<path d="M0 0 C2.97 0 5.94 0 9 0 C9.33 0.66 9.66 1.32 10 2 C8.88625 2.103125 7.7725 2.20625 6.625 2.3125 C5.42875 2.539375 4.2325 2.76625 3 3 C2.34 3.99 1.68 4.98 1 6 C0.67 4.02 0.34 2.04 0 0 Z " fill="#158ECB" transform="translate(384,221)"/>
<path d="M0 0 C0.66 0 1.32 0 2 0 C2.33 2.31 2.66 4.62 3 7 C1.02 6.01 -0.96 5.02 -3 4 C-3 3.34 -3 2.68 -3 2 C-2.01 2 -1.02 2 0 2 C0 1.34 0 0.68 0 0 Z " fill="#D32820" transform="translate(206,168)"/>
<path d="M0 0 C0.66 1.32 1.32 2.64 2 4 C1.01 4.495 1.01 4.495 0 5 C-0.65555119 7.52733235 -0.65555119 7.52733235 -1 10 C-1.99 10 -2.98 10 -4 10 C-3.42655063 7.13275314 -3.1385485 6.1385485 -1 4 C-0.3574765 1.93125966 -0.3574765 1.93125966 0 0 Z " fill="#BEBEBE" transform="translate(66,217)"/>
<path d="M0 0 C0.66 0 1.32 0 2 0 C2.66 3.3 3.32 6.6 4 10 C3.01 10 2.02 10 1 10 C0.67 6.7 0.34 3.4 0 0 Z " fill="#E5FFF2" transform="translate(394,284)"/>
<path d="M0 0 C0.598125 0.350625 1.19625 0.70125 1.8125 1.0625 C0.4925 2.3825 -0.8275 3.7025 -2.1875 5.0625 C-2.8475 4.7325 -3.5075 4.4025 -4.1875 4.0625 C-4.8125 2 -4.8125 2 -5.1875 0.0625 C-2.1875 -0.9375 -2.1875 -0.9375 0 0 Z " fill="#B1B1B1" transform="translate(230.1875,185.9375)"/>
<path d="M0 0 C1.98 0 3.96 0 6 0 C6.33 1.32 6.66 2.64 7 4 C4.03 3.505 4.03 3.505 1 3 C0.67 2.01 0.34 1.02 0 0 Z " fill="#FAFDFC" transform="translate(373,291)"/>
<path d="M0 0 C0.33 0.66 0.66 1.32 1 2 C1.66 2.33 2.32 2.66 3 3 C1.69593116 5.01920337 0.36176581 7.01924973 -1 9 C-1.33 9 -1.66 9 -2 9 C-2.20140476 5.37471432 -1.85776765 3.13498292 0 0 Z " fill="#C7312C" transform="translate(189,193)"/>
<path d="M0 0 C1.32 0.99 2.64 1.98 4 3 C2.35 4.32 0.7 5.64 -1 7 C-1.66 6.34 -2.32 5.68 -3 5 C-2.01 3.35 -1.02 1.7 0 0 Z " fill="#B0AFB1" transform="translate(128,199)"/>
<path d="M0 0 C2.31 0 4.62 0 7 0 C6.01 0.495 6.01 0.495 5 1 C5 1.66 5 2.32 5 3 C3.35 3.33 1.7 3.66 0 4 C0 2.68 0 1.36 0 0 Z " fill="#CE2C26" transform="translate(150,217)"/>
<path d="M0 0 C1 3 1 3 1 5 C0.01 5.66 -0.98 6.32 -2 7 C-2.33 7.99 -2.66 8.98 -3 10 C-3.66 10 -4.32 10 -5 10 C-3.66511872 6.40608886 -2.03977277 3.24509304 0 0 Z " fill="#BE332F" transform="translate(142,202)"/>
<path d="M0 0 C0.33 0.66 0.66 1.32 1 2 C0.00390625 3.9453125 0.00390625 3.9453125 -1.4375 6.125 C-1.91058594 6.84945312 -2.38367188 7.57390625 -2.87109375 8.3203125 C-3.24363281 8.87460938 -3.61617187 9.42890625 -4 10 C-4.33 9.34 -4.66 8.68 -5 8 C-2.51612903 1.25806452 -2.51612903 1.25806452 0 0 Z " fill="#FEEFEA" transform="translate(143,198)"/>
<path d="M0 0 C0.33 0.66 0.66 1.32 1 2 C-0.73397418 5.65047197 -2.19333016 7.55609075 -6 9 C-4.47291037 5.56404834 -2.40072955 2.88087546 0 0 Z " fill="#B6B6B6" transform="translate(82,192)"/>
<path d="M0 0 C0.763125 0.20625 1.52625 0.4125 2.3125 0.625 C1.3225 0.955 0.3325 1.285 -0.6875 1.625 C-1.42073796 3.64008358 -1.42073796 3.64008358 -1.6875 5.625 C-3.0075 4.305 -4.3275 2.985 -5.6875 1.625 C-2.6875 -0.375 -2.6875 -0.375 0 0 Z " fill="#C0322C" transform="translate(203.6875,165.375)"/>
<path d="M0 0 C0.33 0 0.66 0 1 0 C1.28571429 7.42857143 1.28571429 7.42857143 -1 11 C-1.33 11 -1.66 11 -2 11 C-2 9.02 -2 7.04 -2 5 C-1.34 5 -0.68 5 0 5 C0 3.35 0 1.7 0 0 Z " fill="#1E8CC6" transform="translate(411,240)"/>
<path d="M0 0 C0.33 0.66 0.66 1.32 1 2 C0.00390625 4.1640625 0.00390625 4.1640625 -1.4375 6.625 C-1.91058594 7.44226563 -2.38367188 8.25953125 -2.87109375 9.1015625 C-3.24363281 9.72804687 -3.61617187 10.35453125 -4 11 C-5 8 -5 8 -3.6875 4.9375 C-2 2 -2 2 0 0 Z " fill="#FEECE7" transform="translate(137,208)"/>
<path d="M0 0 C1.32 0.33 2.64 0.66 4 1 C-0.455 3.97 -0.455 3.97 -5 7 C-2.36363636 1.72727273 -2.36363636 1.72727273 0 0 Z " fill="#221F1E" transform="translate(102,60)"/>
<path d="M0 0 C-0.66 1.65 -1.32 3.3 -2 5 C-2.33 4.01 -2.66 3.02 -3 2 C-4.98 2.33 -6.96 2.66 -9 3 C-5.73209435 0.82139623 -3.91954654 0 0 0 Z " fill="#B63837" transform="translate(204,176)"/>
</svg>
